Patient4_TMGait_0pt5_01_left_18_GRF.mot
version=1
nRows=39
nColumns=19
inDegrees=no
endheader
time	F1x	F1y	F1z	M1x	M1y	M1z	F2x	F2y	F2z	M2x	M2y	M2z	EC1x	EC1y	EC1z	EC2x	EC2y	EC2z
24.02	11.4635	9.6802	-1.0729	-1.4495	2.1208	15.9695	-36.5911	738.9871	-53.7717	285.9376	64.5119	671.4183	-0.0592	0.0182	-0.0073	-0.0462	0.0165	0.9585
24.0341	7.6026	7.1936	-0.72014	-1.21	1.4173	11.4468	-31.8924	735.9187	-53.235	284.3632	61.5289	667.8609	-0.0592	0.0182	-0.0073	-0.0462	0.0165	0.9585
24.0481	4.3454	5.0884	-0.42433	-1.0106	0.81353	7.6301	-27.3918	734.1307	-52.7518	283.2395	58.7055	664.6385	-0.0592	0.0182	-0.0073	-0.0462	0.0165	0.9585
24.0622	1.8763	3.5005	-0.20267	-0.86869	0.34828	4.7442	-23.3588	734.4356	-52.4014	282.9043	56.2449	662.478	-0.0592	0.0182	-0.0073	-0.0462	0.0165	0.9585
24.0763	0.17022	2.4269	-0.047388	-0.78271	0.013385	2.7747	-19.891	737.2936	-52.228	283.5563	54.231	661.8721	-0.0592	0.0182	-0.0073	-0.0462	0.0165	0.9585
24.0904	-0.89779	1.7815	0.049425	-0.73955	-0.20997	1.5682	-16.9622	742.7238	-52.2485	285.2216	52.6625	662.9484	-0.0592	0.0182	-0.0073	-0.0462	0.0165	0.9585
24.1044	-1.4829	1.4412	0.10846	-0.71921	-0.35528	0.91698	-14.4671	750.3145	-52.4482	287.7557	51.4745	665.4478	-0.0592	0.0182	-0.0073	-0.0462	0.0165	0.9585
24.1185	-1.7484	1.2603	0.14323	-0.69601	-0.44975	0.60195	-12.261	759.2778	-52.7869	290.8669	50.5632	668.7674	-0.0592	0.0182	-0.0073	-0.0462	0.0165	0.9585
24.1326	-1.8216	1.0834	0.17287	-0.6358	-0.52163	0.39842	-10.205	768.5675	-53.1999	294.1601	49.8044	672.0873	-0.0592	0.0182	-0.0073	-0.0462	0.0165	0.9585
24.1466	-1.8031	0.76834	0.20223	-0.50174	-0.58572	0.11022	-8.1808	776.9964	-53.6061	297.183	49.0631	674.4663	-0.0592	0.0182	-0.0073	-0.0462	0.0165	0.9585
24.1607	-1.7551	0.18856	0.23886	-0.25507	-0.65584	-0.42734	-6.0953	783.3671	-53.9239	299.477	48.2182	674.9585	-0.0592	0.0182	-0.0073	-0.0462	0.0165	0.9585
24.1748	-1.6933	-0.76539	0.27833	0.13771	-0.72589	-1.345	-3.8941	786.6307	-54.0687	300.6384	47.17	672.7616	-0.0592	0.0182	-0.0073	-0.0462	0.0165	0.9585
24.1889	-1.6133	-2.1549	0.31443	0.69631	-0.77949	-2.7069	-1.5445	786.0405	-53.9595	300.3786	45.8384	667.3272	-0.0592	0.0182	-0.0073	-0.0462	0.0165	0.9585
24.2029	-1.4719	-3.9632	0.33637	1.4105	-0.78295	-4.5061	0.95511	781.2588	-53.5535	298.5611	44.1919	658.4485	-0.0592	0.0182	-0.0073	-0.0462	0.0165	0.9585
24.217	-1.2046	-6.0451	0.33265	2.2217	-0.69789	-6.5986	3.5811	772.4801	-52.8767	295.2474	42.2642	646.361	-0.0592	0.0182	-0.0073	-0.0462	0.0165	0.9585
24.2311	-0.72365	-8.0586	0.28602	2.9967	-0.47772	-8.6336	6.3024	760.546	-52.0217	290.7413	40.1432	631.8178	-0.0592	0.0182	-0.0073	-0.0462	0.0165	0.9585
24.2451	0.08334	-9.3997	0.16589	3.5018	-0.056759	-9.9999	9.0739	746.8877	-51.1293	285.5687	37.9572	616.0522	-0.0592	0.0182	-0.0073	-0.0462	0.0165	0.9585
24.2592	1.3155	-9.1198	-0.059812	3.3733	0.62958	-9.7444	11.8569	733.2448	-50.3404	280.372	35.8357	600.5289	-0.0592	0.0182	-0.0073	-0.0462	0.0165	0.9585
24.2733	3.0359	-5.8836	-0.4372	2.1009	1.6485	-6.5372	14.5965	721.2342	-49.7853	275.7469	33.9065	586.599	-0.0592	0.0182	-0.0073	-0.0462	0.0165	0.9585
24.2874	5.226	2.0107	-0.99325	-0.96436	3.0172	1.3218	17.2242	711.8825	-49.5687	272.0663	32.2843	575.1255	-0.0592	0.0182	-0.0073	-0.0462	0.0165	0.9585
24.3014	7.7262	16.5059	-1.7434	-6.5626	4.6828	15.7811	19.6836	705.3148	-49.7397	269.3637	31.04	566.2331	-0.0592	0.0182	-0.0073	-0.0462	0.0165	0.9585
24.3155	10.1588	39.467	-2.6561	-15.4026	6.4567	38.713	21.9031	700.6778	-50.2513	267.3061	30.1724	559.2673	-0.0592	0.0182	-0.0073	-0.0462	0.0165	0.9585
24.3296	11.8257	72.1307	-3.637	-27.9527	7.9666	71.3705	23.7946	696.2419	-50.9315	265.2392	29.5871	552.8741	-0.0592	0.0182	-0.0073	-0.0462	0.0165	0.9585
24.3436	11.6535	114.2784	-4.4838	-44.1231	8.5966	113.5667	25.2475	689.7271	-51.5151	262.3129	29.1328	545.2742	-0.0592	0.0182	-0.0073	-0.0462	0.0165	0.9585
24.3577	8.5288	163.4064	-4.8574	-62.9408	7.5916	162.8439	26.1463	678.7299	-51.6915	257.6447	28.6293	534.5826	-0.0592	0.0182	-0.0073	-0.0462	0.0165	0.9585
24.3718	2.6072	214.6516	-4.2631	-82.5054	4.5292	214.3305	26.4367	661.2636	-51.1911	250.5225	27.9053	519.2154	-0.0592	0.0182	-0.0073	-0.0462	0.0165	0.9585
24.3859	-4.4045	261.7692	-1.99	-100.3932	-0.61666	261.6049	26.1477	636.1974	-49.8388	240.5656	26.8312	498.249	-0.0592	0.0182	-0.0073	-0.0462	0.0165	0.9585
24.3999	-11.0032	301.113	1.7693	-115.2109	-7.0292	300.7585	25.3978	603.4405	-47.611	227.7806	25.3598	471.5546	-0.0592	0.0182	-0.0073	-0.0462	0.0165	0.9585
24.414	-16.3965	333.0755	6.3335	-127.1357	-13.6957	332.0519	24.3539	563.8016	-44.6326	212.4942	23.5213	439.7039	-0.0592	0.0182	-0.0073	-0.0462	0.0165	0.9585
24.4281	-20.366	360.2848	11.1161	-137.2041	-19.9363	358.1141	23.1779	518.5808	-41.0905	195.2032	21.385	403.6685	-0.0592	0.0182	-0.0073	-0.0462	0.0165	0.9585
24.4421	-23.0721	385.9231	15.7007	-146.652	-25.4038	382.1346	21.9564	469.2634	-37.0963	176.4671	18.9884	364.5792	-0.0592	0.0182	-0.0073	-0.0462	0.0165	0.9585
24.4562	-24.7931	412.5982	19.7722	-156.4826	-29.9102	406.7014	20.6596	417.3475	-32.7153	156.8426	16.3748	323.6047	-0.0592	0.0182	-0.0073	-0.0462	0.0165	0.9585
24.4703	-25.8181	442.02	23.3243	-167.3301	-33.5742	433.5176	19.1731	364.2304	-28.0519	136.8408	13.6451	281.8533	-0.0592	0.0182	-0.0073	-0.0462	0.0165	0.9585
24.4844	-26.3803	475.025	26.4516	-179.4832	-36.5859	463.4192	17.3308	311.2279	-23.2861	116.9332	10.9696	240.3784	-0.0592	0.0182	-0.0073	-0.0462	0.0165	0.9585
24.4984	-26.6339	511.5989	29.5249	-192.8925	-39.3659	496.4241	15.0016	259.6048	-18.6703	97.5694	8.5624	200.178	-0.0592	0.0182	-0.0073	-0.0462	0.0165	0.9585
24.5125	-26.6946	550.9511	32.843	-207.2255	-42.2457	531.7346	12.1729	210.6314	-14.4589	79.2036	6.6024	162.2226	-0.0592	0.0182	-0.0073	-0.0462	0.0165	0.9585
24.5266	-26.7212	591.8415	36.6919	-221.9873	-45.5517	568.1434	8.9727	165.5673	-10.8638	62.2912	5.1916	127.448	-0.0592	0.0182	-0.0073	-0.0462	0.0165	0.9585
24.5406	-26.7688	632.9429	40.981	-236.6812	-49.2169	604.3584	5.6816	125.5284	-7.9784	47.2446	4.2936	96.6436	-0.0592	0.0182	-0.0073	-0.0462	0.0165	0.9585
24.5547	-26.7939	672.8686	45.4353	-250.8071	-52.9723	639.0622	2.628	91.2793	-5.7822	34.3552	3.7771	70.3319	-0.0592	0.0182	-0.0073	-0.0462	0.0165	0.9585
